# xmcd
#
# Track frame offsets: 
#        150
#        12724
#        27912
#        37382
#        46428
#        75075
#        86981
#        97557
#        107173
#        115034
#        135021
#
# Disc length: 1972 seconds
#
# Revision: 3
# Processed by: cddbd v1.5.2PL0 Copyright (c) Steve Scherf et al.
# Submitted via: ExactAudioCopy v0.99pb5
#
DISCID=7d07b20b
DTITLE=Doctor K's Blues Band - Dr K's Blues Band
DYEAR=1968
DGENRE=Blues
TTITLE0=I Can't Lose
TTITLE1=Walking
TTITLE2=Key To The Highway
TTITLE3=Crippled Clarence
TTITLE4=Pet Cream Man
TTITLE5=Messin' With The Kid
TTITLE6=Don't Quit The Man You Love For Me
TTITLE7=Rolty's Banjo Shuffle
TTITLE8=Strobe Lemming's Lament
TTITLE9=Long Distance Call
TTITLE10=Feel So Bad
EXTD=
EXTT0=
EXTT1=
EXTT2=
EXTT3=
EXTT4=
EXTT5=
EXTT6=
EXTT7=
EXTT8=
EXTT9=
EXTT10=
PLAYORDER=
